<?xml version="1.0" encoding="UTF-8"?>
<svg id="_Слой_2" data-name="Слой 2" xmlns="http://www.w3.org/2000/svg" viewBox="0 0 96.19 52.67">
  <defs>
    <style>
      .cls-1 {
        fill: #5ab67b;
      }

      .cls-2 {
        fill: #57b579;
      }

      .cls-3 {
        fill: #59b67a;
      }
    </style>
  </defs>
  <g id="_Слой_1-2" data-name="Слой 1">
    <g>
      <path class="cls-2" d="M60.04,52.67v-17.96h-19.51l-.47-.48c.07-4.7-.52-10.06-.13-14.73.04-.44.03-.88.31-1.25l19.81-.3V0l36.15,26.22-36.15,26.45Z"/>
      <path class="cls-1" d="M16.16,18.01c2.06-.33,3.71,1.17,3.9,3.17s.29,9.5-.11,11.16c-.78,3.27-6.2,3.26-6.61-1.09-.2-2.1-.29-8.56.06-10.49.23-1.25,1.49-2.56,2.76-2.76Z"/>
      <path class="cls-3" d="M3,18.01c2.17-.32,3.7,1.36,3.9,3.41s.29,8.56-.06,10.49c-.68,3.73-6.17,3.65-6.65-.18-.22-1.76-.26-9.61.06-11.2.24-1.18,1.58-2.35,2.76-2.52Z"/>
      <path class="cls-1" d="M29.57,18.01c2.35-.34,3.69,1.51,3.9,3.65s.27,8.02-.07,10.01c-.69,4.14-6.27,3.95-6.66-.17-.2-2.15-.3-9.01.07-10.97.23-1.2,1.55-2.34,2.76-2.52Z"/>
    </g>
  </g>
</svg>