<?xml version="1.0" encoding="UTF-8"?>
<svg id="_Слой_2" data-name="Слой 2" xmlns="http://www.w3.org/2000/svg" viewBox="0 0 3000 2137.42">
  <defs>
    <style>
      .cls-1 {
        fill: #fafafd;
      }

      .cls-2 {
        fill: #fae892;
      }

      .cls-3 {
        fill: #e9eef4;
      }

      .cls-4 {
        fill: #edf2f6;
      }

      .cls-5 {
        fill: #fbeeb2;
      }

      .cls-6 {
        fill: #fff;
      }

      .cls-7 {
        fill: #dfe3ee;
      }

      .cls-8 {
        fill: #e9dbc4;
      }

      .cls-9 {
        fill: #f8d693;
      }

      .cls-10 {
        fill: #bac5d9;
      }

      .cls-11 {
        fill: #e4e8f1;
      }

      .cls-12 {
        fill: #eceef5;
      }

      .cls-13 {
        fill: #ecf1f6;
      }

      .cls-14 {
        fill: #ecf0f6;
      }

      .cls-15 {
        fill: #f8d692;
      }
    </style>
  </defs>
  <g id="_Слой_1-2" data-name="Слой 1">
    <g>
      <path class="cls-10" d="M1790.81,694.09c10.5,4.13,29.87,12.99,39.97,17.99,11.95,5.91,28.11,15.97,39.8,23.16,107.95,66.32,186.81,169.25,226.04,289.68,3.88,3.81,43.34,5.76,52.67,7.29,89.71,14.66,177.01,54.08,247.1,111.68,14.91,12.25,34.67,30.1,47.97,43.98.16.57,1.52,1.3,2,2v2l2,2c304.39,333.24,69.39,862.28-374.67,871.67l-63.51-3.72c-55.43,33.98-117.12,57.49-181.36,68.66l-48.02,6.95h-67.95c-6.1-4.02-16.28-1.52-23.98-2-90.59-5.59-191.92-48.75-263.65-103.12-22.27-16.88-41.8-36.85-63.09-54.83-24.07,16.7-47.04,34.73-72.38,49.6-148.71,87.24-331.35,93.82-486.99,20.11-8.43-3.99-39.51-23.2-44.43-23.71-6.79-.7-39.81,16.32-49.75,20.03-306.81,114.64-638.56-70.48-697.94-391.49-2.9-15.67-4.29-31.61-6.7-47.36-.57-3.72,2.53-8.11-3.92-6.98v-4h3.99c0-2.64.12-5.34,0-8-.83-19.56.59-37.85,0-55.97-.06-2,.13-4.01,0-6H0s0-4,0-4c6.44,1.12,3.43-3.26,3.9-7,2.01-15.83,3.79-31.66,6.72-47.34,44.3-237.25,241.88-411.54,483.08-426.4,130.9-259.97,468.27-358.23,720.55-210.98,23.27-20.18,45.11-42.8,69.98-61.84,142.21-108.9,338.73-138.05,506.58-72.05ZM1888.74,782.05c-28.95-24.39-63.64-41.47-98.35-56.16-22.72-9.61-53.5-21.82-79.07-27.64-158.01-35.93-325.83,8.52-444.25,116.64-7.08,6.47-43.5,46.91-46.99,47.22-19.28-8.94-36.88-20.78-56.14-29.81-161.66-75.76-352.53-57.98-497.02,46.06-40.48,29.15-79.62,66.12-107.29,107.58-.63.69-1.36,1.3-2,2-2.8,3.1-3.08,4.87-4,6-14.58,17.87-35,51.44-45.97,71.97-137.97,2.94-273.04,67.87-361.7,172.97-7.76,9.2-17.05,20.19-22.04,30.93-.62.69-1.36,1.3-2,2-2.83,3.12-3.03,4.8-4,6-39.03,48.35-77.24,140.54-89.01,201.84-7.7,40.12,2.19,64.54,15.06,102.02,100.85,293.8,437.72,426.05,714.41,283.85,187.49,119.94,439.94,97.47,605.44-49.81,160.4,180.65,439.48,220.79,644.07,90.36,251.01,32.54,496.17-141.21,550.03-387.34l-3.62-49c3,7.06,5.27,14.79,8.02,21.97l3.96-14.97c-21.71-124.34-88.69-221.69-179.87-304.87-2.18-1.99-2.95-6.47-7.99-6-.57-.74-1.36-1.32-2-2-26.88-28.85-92.05-62.94-129.38-77.5-51.5-20.08-105.3-30.5-160.43-34.45-43.11-103.91-75.93-166.49-161.89-241.89-.47-.41-.96-1.47-4-4-.7-.59-1.26-1.4-2-2-3.83-3.1-5.6-4.8-9.99-8-6.8-4.95-12.67-9.58-19.99-13.99ZM27.97,1661.63c-3.46.13-4.2-1.35-3.55,2.52,2.7,16.02,6.59,35.33,11.31,50.8.99,3.26-1.62,5.65,4.23,4.65l-11.99-57.97Z"/>
      <path class="cls-9" d="M1790.81,694.09l21.95-89.86-185.28-75.63c-18.98-15.96-5.06-42.82,19.54-35.52l180.43,72.88c16.59-30.86,33.45-59.51,54.5-87.57,4.18-5.57,23.85-25.88,22.57-30.79l-198.74-199.23c-14.23-19.65,8.27-42.11,28.06-28.07l200.14,199.77c35.17-27.88,71.01-56.18,112.62-73.92l-77.55-185.31c-1.37-22.72,24.45-34.66,38.44-14.33l77.12,180.86c3.22,2.03,32.78-8.82,39.54-10.54,32.19-8.18,65.12-13.62,98.37-14.56V17.41c0-1.7,5.05-11.32,6.94-13.05,10.65-9.78,32.67-2.09,32.86,13.23,4.68,88.34-5.6,182.06.1,269.77.33,5.03,2.03,9.79,2.17,14.83,30.47,1.25,60.68,5.4,90.28,12.66,7.89,1.93,37.07,13.66,41.64,10.52l73.46-180.41c13.42-22.92,45.02-10.13,37.89,15.92l-73.62,182.19c41.79,20.03,81.68,45.05,115.35,77.01l201.59-199.76c20.63-14.26,43.24,8.36,28.98,28.99l-199.72,200.18c22.18,26.15,42.86,53.65,60.16,83.34,3.5,6,11.01,26.94,16.68,27.44l180.73-75.2c25.06-6.17,36.64,26.34,14.21,38.21l-179.81,75.04c5.32,25.46,14.71,49.59,19.26,75.34,3.75,21.25,5.84,42.84,6.54,64.43l284.87-.06c9.14.32,13.13,6.93,16.94,14.04v11.99c-2.27,5.14-9.01,13.99-14.99,13.99h-286.81c.6,45.91-13.34,89.6-23.73,133.68l179.74,73.11c23.39,11.39,11.83,45.57-14.23,38.21l-182.48-73.24c-19.68,42.74-47.02,80.95-77.07,116.83l199.72,200.18c15.45,22.28-11.23,43.9-30.97,26.98l-198.15-197.75c-24.45,19.84-49.06,39.11-76.06,55.45-5.99,3.63-30.17,14.74-32.63,17.38-3.17,3.39.56,13.81,2.04,18.99-13.29-13.88-33.06-31.73-47.97-43.98,221.6-81.85,328.74-356.64,219.85-567.73-.52-2.48-1.03-3.75-2-6-1.28-2.96-3.19-4.42-4-6-9.61-18.74-20.28-37.08-33.14-53.81-4.97-6.47-30.26-37.3-34.82-40.14-110.43-119.82-287.43-158.86-440.74-103.99-146.16,52.32-257.77,189.93-270.78,345.87-10.11-5-29.47-13.86-39.97-17.99Z"/>
      <path class="cls-12" d="M4,1529.7c.59,18.13-.83,36.41,0,55.97H0v-55.97h4Z"/>
      <path class="cls-7" d="M1712.86,2137.42h-23.98v-2c7.7.48,17.89-2.02,23.98,2Z"/>
      <path class="cls-6" d="M4,1585.67c.11,2.66,0,5.35,0,8.01H0v-8.01h4Z"/>
      <path class="cls-6" d="M0,1523.7h3.99c.14,1.99-.06,4,0,6H0v-6Z"/>
      <path class="cls-8" d="M2446.37,1189.86c-.48-.7-1.84-1.43-2-2,.65.68,1.37,1.3,2,2Z"/>
      <path class="cls-8" d="M2448.37,1193.86l-2-2,2,2Z"/>
      <path class="cls-4" d="M43.97,1581.68c15.49-67.11,39.53-129.68,77.9-186.96,89.11-133.01,238.8-217.95,399.8-223.82,67.83-133.9,192.95-234.42,340.11-267.53,108.46-24.4,221.6-13.64,322.77,32.27,18.87,8.56,36.83,20.15,55.33,28.23,24.71-28.6,52.9-54.37,83.44-76.64,174.4-127.18,411.44-128.61,588.02-4.84,93.73,65.69,164.21,164.94,195.51,275.24,198.56,7.15,370.33,130.96,447.44,312.11l3.62,49c-53.86,246.13-299.02,419.88-550.03,387.34-204.59,130.43-483.67,90.29-644.07-90.36-165.5,147.28-417.96,169.75-605.44,49.81-276.68,142.2-613.56,9.95-714.41-283.85Z"/>
      <path class="cls-2" d="M2542.31,470.2c-69.25-43.18-109.55-81.37-195.85-100.97-207.99-47.24-250.21,102.17-105.98,229.94,25.79,22.84,51.44,34.47,77.98,52.95,8.39,5.84,9.27,17.35,25.98,13.99,20.35,9.96,42.12,18.78,63.96,24.98,96.36,27.37,236.68,22.49,207.86-114.94,108.89,211.09,1.75,485.88-219.85,567.73-70.09-57.6-157.4-97.02-247.1-111.68-9.33-1.52-48.79-3.47-52.67-7.29-39.23-120.43-118.09-223.35-226.04-289.68-11.7-7.19-27.86-17.25-39.8-23.16,13.01-155.95,124.62-293.56,270.78-345.87,153.31-54.87,330.31-15.84,440.74,103.99ZM2062.18,582.7c-26.75,3.03-59.75,20.45-79.53,38.4-11.27,10.22-27.4,30.21-7.81,41.85,17.19,10.22,22.21-2.55,32.89-10.78,49.17-37.9,84.56-42.67,134.87-3.08,4.41,3.47,8.64,10.22,12.96,13.03,19.51,12.71,41.24-8.43,29-27.01-23.78-36.12-80.44-57.16-122.37-52.41ZM2397.87,878.35c-3.51.73-33,24.61-40.83,29.25-73.27,43.41-152.78,45.59-227.8,4.73-9.55-5.2-39.17-28.46-44.05-29.89-9.81-2.88-21.29.95-20.55,12.41s42.83,36.3,53.9,42.17c82.53,43.71,171.57,41.51,251.71-6.2,7.84-4.67,40.14-26.42,43.09-32.86,5.06-11.03-3.52-22.08-15.48-19.61Z"/>
      <path class="cls-1" d="M559.63,985.95c37.74-41.23,81.39-83.14,130.87-113.99,148.53-92.6,334.28-100.09,491.43-23.66,5.94,2.89,37.54,22.14,40.06,21.54,150.99-175.24,405.33-223.44,612.13-118.12,17.37,8.85,33.91,20.51,50.12,30.23,1.29.78,3.85-.3,4.5.09,7.31,4.41,13.18,9.05,19.99,13.99.35,5.66,4.48,8.53,9.99,8,.74.6,1.29,1.41,2,2-.67,3.85.17,4.64,4,4,85.96,75.4,118.78,137.97,161.89,241.89,1.31,3.16-.11,9.81,5.33,11.67,76.5,2.55,153.7,24.52,220.57,61.25,19.07,10.48,36.63,23.28,54.79,35.17,2.96,1.94,4.58,4.8,9.12,3.86.64.68,1.42,1.26,2,2,1.63,2.11.08,7.58,7.99,6,91.17,83.18,158.15,180.53,179.87,304.87l-3.96,14.97c-2.75-7.19-5.02-14.92-8.02-21.97-77.1-181.16-248.88-304.97-447.44-312.11-31.3-110.3-101.77-209.55-195.51-275.24-176.58-123.76-413.62-122.34-588.02,4.84-30.54,22.27-58.73,48.04-83.44,76.64-18.51-8.08-36.47-19.67-55.33-28.23-101.17-45.91-214.32-56.67-322.77-32.27-147.16,33.11-272.28,133.63-340.11,267.53-161.01,5.87-310.69,90.81-399.8,223.82-38.38,57.28-62.41,119.85-77.9,186.96-12.87-37.48-22.76-61.9-15.06-102.02,11.76-61.3,49.97-153.48,89.01-201.84l3.8-.16.2-5.83c.64-.7,1.38-1.31,2-2,31.16-34.9,68.48-72.79,109.3-101.58,79.5-56.07,173.52-87.58,270.99-92.32,3.65-1.1,2.37-7.98,3.45-10,10.97-20.53,31.39-54.1,45.97-71.97l3.8-.16.2-5.83c.64-.7,1.37-1.31,2-2Z"/>
      <path class="cls-13" d="M559.63,985.95c27.67-41.46,66.82-78.43,107.29-107.58,144.48-104.04,335.36-121.83,497.02-46.06,19.27,9.03,36.86,20.87,56.14,29.81,3.49-.31,39.9-40.75,46.99-47.22,118.42-108.12,286.24-152.58,444.25-116.64,25.56,5.81,56.35,18.03,79.07,27.64,34.71,14.69,69.41,31.77,98.35,56.16-.65-.39-3.21.68-4.5-.09-16.22-9.72-32.76-21.39-50.12-30.23-206.8-105.33-461.14-57.12-612.13,118.12-2.52.6-34.12-18.65-40.06-21.54-157.15-76.43-342.9-68.94-491.43,23.66-49.48,30.85-93.13,72.76-130.87,113.99Z"/>
      <path class="cls-14" d="M507.66,1065.92c-1.08,2.02.19,8.9-3.45,10-97.47,4.74-191.49,36.25-270.99,92.32-40.82,28.79-78.13,66.68-109.3,101.58,4.98-10.74,14.28-21.73,22.04-30.93,88.66-105.1,223.73-170.04,361.7-172.97Z"/>
      <path class="cls-14" d="M2376.42,1163.87c-4.54.94-6.16-1.92-9.12-3.86-18.16-11.88-35.72-24.69-54.79-35.17-66.87-36.74-144.07-58.71-220.57-61.25-5.43-1.86-4.01-8.51-5.33-11.67,55.13,3.95,108.93,14.36,160.43,34.45,37.33,14.56,102.5,48.65,129.38,77.5Z"/>
      <path class="cls-11" d="M27.97,1661.63l11.99,57.97c-5.85,1-3.24-1.39-4.23-4.65-4.72-15.46-8.61-34.78-11.31-50.8-.65-3.87.08-2.4,3.55-2.52Z"/>
      <path class="cls-3" d="M1918.72,804.04c-5.52.54-9.65-2.33-9.99-8,4.39,3.19,6.17,4.9,9.99,8Z"/>
      <path class="cls-14" d="M2386.41,1171.87c-7.92,1.58-6.36-3.88-7.99-6,5.05-.47,5.81,4,7.99,6Z"/>
      <path class="cls-13" d="M557.63,987.95l-.2,5.83-3.8.16c.92-1.13,1.19-2.9,4-6Z"/>
      <path class="cls-14" d="M121.92,1271.82l-.2,5.83-3.8.16c.97-1.2,1.17-2.88,4-6Z"/>
      <path class="cls-3" d="M1920.72,806.04c3.04,2.53,3.53,3.58,4,4-3.83.65-4.67-.15-4-4Z"/>
      <path class="cls-5" d="M2542.31,470.2c4.55,2.84,29.84,33.67,34.82,40.14,12.85,16.74,23.53,35.07,33.14,53.81l4,6c.97,2.25,1.48,3.51,2,6,28.82,137.43-111.5,142.31-207.86,114.94-21.84-6.2-43.61-15.02-63.96-24.98,6.85-1.38,15.21-13.47,21.05-17.93,36.13-27.65,74.23-37.36,114.69-10.88,14.56,9.53,38.38,43.93,56.18,21.86,12.69-15.73-2.77-29.97-14.01-40.05-45.79-41.09-104.39-49.53-158.53-18.57-16.58,9.48-48.18,30.08-45.36,51.59-26.54-18.48-52.19-30.1-77.98-52.95-144.23-127.77-102.01-277.19,105.98-229.94,86.3,19.6,126.6,57.8,195.85,100.97Z"/>
      <path class="cls-2" d="M2614.26,570.15l-4-6c.81,1.57,2.72,3.04,4,6Z"/>
      <path class="cls-15" d="M2397.87,878.35c11.96-2.48,20.54,8.58,15.48,19.61-2.96,6.44-35.25,28.19-43.09,32.86-80.14,47.72-169.18,49.91-251.71,6.2-11.07-5.87-53.14-30.33-53.9-42.17s10.74-15.29,20.55-12.41c4.88,1.43,34.5,24.69,44.05,29.89,75.02,40.86,154.53,38.68,227.8-4.73,7.84-4.64,37.32-28.53,40.83-29.25Z"/>
      <path class="cls-9" d="M2344.44,666.1c-16.71,3.36-17.6-8.16-25.98-13.99-2.82-21.51,28.78-42.11,45.36-51.59,54.15-30.95,112.74-22.52,158.53,18.57,11.24,10.08,26.69,24.32,14.01,40.05-17.8,22.07-41.62-12.33-56.18-21.86-40.46-26.48-78.56-16.77-114.69,10.88-5.83,4.46-14.19,16.56-21.05,17.93Z"/>
      <path class="cls-15" d="M2062.18,582.7c41.93-4.75,98.59,16.29,122.37,52.41,12.24,18.58-9.49,39.72-29,27.01-4.31-2.81-8.55-9.56-12.96-13.03-50.31-39.59-85.7-34.81-134.87,3.08-10.68,8.23-15.7,21-32.89,10.78-19.59-11.65-3.45-31.63,7.81-41.85,19.78-17.95,52.77-35.37,79.53-38.4Z"/>
    </g>
  </g>
</svg>